<svg width="25" height="24" viewBox="0 0 25 24" fill="none" xmlns="http://www.w3.org/2000/svg">
<path d="M11.7469 4.16475L12.5 5.02678L13.2531 4.16475C14.0083 3.30027 14.7014 2.62075 15.5318 2.14594C16.3436 1.68176 17.3437 1.38184 18.75 1.38184C20.0874 1.38184 21.3571 1.82255 22.3035 2.87442C23.2587 3.93612 24 5.74922 24 8.7168C24 9.99062 23.3403 12.1276 21.4656 14.6274C19.674 17.0164 16.8096 19.6834 12.5 22.1535C8.19035 19.6834 5.32596 17.0164 3.5344 14.6274C1.65969 12.1276 1 9.99062 1 8.7168C1 5.74922 1.74129 3.93612 2.69652 2.87442C3.6429 1.82255 4.91262 1.38184 6.25 1.38184C7.65628 1.38184 8.65641 1.68176 9.46823 2.14594C10.2986 2.62075 10.9917 3.30027 11.7469 4.16475Z" fill="white" stroke="#2F2F2F" stroke-width="2"/>
</svg>
